<?xml version="1.0" standalone="no"?>
<!DOCTYPE svg PUBLIC "-//W3C//DTD SVG 20010904//EN"
 "http://www.w3.org/TR/2001/REC-SVG-20010904/DTD/svg10.dtd">
<svg version="1.0" xmlns="http://www.w3.org/2000/svg"
 width="175.000000pt" height="175.000000pt" viewBox="0 0 175.000000 175.000000"
 preserveAspectRatio="xMidYMid meet">
<metadata>
Created by potrace 1.14, written by Peter Selinger 2001-2017
</metadata>
<g transform="translate(0.000000,175.000000) scale(0.100000,-0.100000)"
fill="#000000" stroke="none">
<path d="M550 1599 c-80 -26 -186 -95 -240 -156 -57 -65 -107 -173 -121 -261
-15 -88 -2 -177 37 -259 l25 -53 -26 -56 c-59 -125 -55 -266 10 -400 44 -89
98 -151 183 -208 101 -66 187 -89 320 -84 89 4 117 9 167 32 84 38 156 96 194
155 28 43 38 51 65 51 56 0 158 30 213 61 148 85 253 271 253 449 0 177 -107
365 -254 449 -54 31 -157 61 -212 61 -27 0 -37 8 -65 51 -38 59 -110 117 -194
155 -52 23 -76 28 -175 31 -96 2 -126 0 -180 -18z m293 -95 c56 -19 137 -76
167 -116 l23 -32 -24 -15 c-13 -8 -42 -34 -65 -57 -69 -70 -75 -162 -15 -216
39 -35 98 -38 147 -8 44 28 84 109 84 172 0 57 5 58 104 28 174 -54 292 -264
258 -462 -26 -147 -132 -279 -258 -318 -99 -30 -104 -29 -104 28 0 63 -40 144
-84 172 -49 30 -108 27 -147 -8 -74 -66 -45 -188 62 -259 21 -14 39 -29 39
-34 0 -4 -20 -28 -45 -53 -87 -86 -213 -127 -334 -106 -189 31 -332 171 -364
355 -10 56 -9 76 6 133 10 37 21 70 26 75 5 5 26 0 47 -11 87 -44 177 -37 229
18 25 26 30 40 30 80 0 40 -5 54 -28 78 -54 56 -145 64 -231 20 -21 -11 -42
-16 -47 -11 -5 5 -16 38 -26 75 -15 57 -16 77 -6 133 44 257 316 423 556 339z
m217 -280 c0 -28 -16 -65 -34 -76 -42 -28 -49 25 -10 71 31 38 44 39 44 5z
m-544 -339 c19 -15 19 -15 0 -30 -24 -18 -42 -19 -84 -4 -34 12 -33 25 2 39
32 13 60 12 82 -5z m510 -293 c18 -11 34 -48 34 -76 0 -33 -10 -33 -43 2 -41
43 -33 103 9 74z"/>
</g>
</svg>
